HIERARCHY
ROOT Hips
{
	OFFSET 0.00000 0.00000 0.00000
	CHANNELS 6 Xposition Yposition Zposition Zrotation Yrotation Xrotation 
	JOINT LHipJoint
	{
		OFFSET 0 0 0
		CHANNELS 3 Zrotation Yrotation Xrotation
		JOINT LeftUpLeg
		{
			OFFSET 1.62964 -1.40469 0.78906
			CHANNELS 3 Zrotation Yrotation Xrotation
			JOINT LeftLeg
			{
				OFFSET 2.29640 -6.30932 0.00000
				CHANNELS 3 Zrotation Yrotation Xrotation
				JOINT LeftFoot
				{
					OFFSET 2.29451 -6.30412 0.00000
					CHANNELS 3 Zrotation Yrotation Xrotation
					JOINT LeftToeBase
					{
						OFFSET 0.03611 -0.09921 1.56387
						CHANNELS 3 Zrotation Yrotation Xrotation
						End Site
						{
							OFFSET 0.00000 -0.00000 0.80291
						}
					}
				}
			}
		}
	}
	JOINT RHipJoint
	{
		OFFSET 0 0 0
		CHANNELS 3 Zrotation Yrotation Xrotation
		JOINT RightUpLeg
		{
			OFFSET -1.73712 -1.40469 0.78906
			CHANNELS 3 Zrotation Yrotation Xrotation
			JOINT RightLeg
			{
				OFFSET -2.28137 -6.26801 0.00000
				CHANNELS 3 Zrotation Yrotation Xrotation
				JOINT RightFoot
				{
					OFFSET -2.28681 -6.28298 0.00000
					CHANNELS 3 Zrotation Yrotation Xrotation
					JOINT RightToeBase
					{
						OFFSET -0.15927 -0.43759 1.61103
						CHANNELS 3 Zrotation Yrotation Xrotation
						End Site
						{
							OFFSET -0.00000 -0.00000 0.84630
						}
					}
				}
			}
		}
	}
	JOINT LowerBack
	{
		OFFSET 0 0 0
		CHANNELS 3 Zrotation Yrotation Xrotation
		JOINT Spine
		{
			OFFSET -0.04227 2.04338 -0.00225
			CHANNELS 3 Zrotation Yrotation Xrotation
			JOINT Spine1
			{
				OFFSET -0.02148 2.04482 -0.04273
				CHANNELS 3 Zrotation Yrotation Xrotation
				JOINT Neck
				{
					OFFSET 0 0 0
					CHANNELS 3 Zrotation Yrotation Xrotation
					JOINT Neck1
					{
						OFFSET 0.09180 1.44629 0.19359
						CHANNELS 3 Zrotation Yrotation Xrotation
						JOINT Head
						{
							OFFSET 0.00887 1.40645 0.14750
							CHANNELS 3 Zrotation Yrotation Xrotation
							End Site
							{
								OFFSET -0.00669 1.50671 0.03707
							}
						}
					}
				}
				JOINT LeftShoulder
				{
					OFFSET 0 0 0
					CHANNELS 3 Zrotation Yrotation Xrotation
					JOINT LeftArm
					{
						OFFSET 2.17674 1.86763 -0.06520
						CHANNELS 3 Zrotation Yrotation Xrotation
						JOINT LeftForeArm
						{
							OFFSET 4.65776 -0.00000 0.00000
							CHANNELS 3 Zrotation Yrotation Xrotation
							JOINT LeftHand
							{
								OFFSET 3.55539 -0.00000 0.00000
								CHANNELS 3 Zrotation Yrotation Xrotation
								JOINT LeftFingerBase
								{
									OFFSET 0 0 0
									CHANNELS 3 Zrotation Yrotation Xrotation
									JOINT LeftHandIndex1
									{
										OFFSET 0.70726 -0.00000 0.00000
										CHANNELS 3 Zrotation Yrotation Xrotation
										End Site
										{
											OFFSET 0.57022 -0.00000 0.00000
										}
									}
								}
								JOINT LThumb
								{
									OFFSET 0 0 0
									CHANNELS 3 Zrotation Yrotation Xrotation
									End Site
									{
										OFFSET 0.57892 -0.00000 0.57892
									}
								}
							}
						}
					}
				}
				JOINT RightShoulder
				{
					OFFSET 0 0 0
					CHANNELS 3 Zrotation Yrotation Xrotation
					JOINT RightArm
					{
						OFFSET -2.80694 1.55459 -0.32496
						CHANNELS 3 Zrotation Yrotation Xrotation
						JOINT RightForeArm
						{
							OFFSET -4.71925 -0.00000 -0.00000
							CHANNELS 3 Zrotation Yrotation Xrotation
							JOINT RightHand
							{
								OFFSET -3.56990 -0.00000 0.00000
								CHANNELS 3 Zrotation Yrotation Xrotation
								JOINT RightFingerBase
								{
									OFFSET 0 0 0
									CHANNELS 3 Zrotation Yrotation Xrotation
									JOINT RightHandIndex1
									{
										OFFSET -0.50776 -0.00000 0.00000
										CHANNELS 3 Zrotation Yrotation Xrotation
										End Site
										{
											OFFSET -0.40937 -0.00000 0.00000
										}
									}
								}
								JOINT RThumb
								{
									OFFSET 0 0 0
									CHANNELS 3 Zrotation Yrotation Xrotation
									End Site
									{
										OFFSET -0.41562 -0.00000 0.41562
									}
								}
							}
						}
					}
				}
			}
		}
	}
}
MOTION
Frames: 8
Frame Time: 0.111111
0.00 0.00 0.00 0 0 0 0 0 0 -21 0 0 0 0 0 0 0 0 0 0 0 0 0 0 21 0 0 0 0 0 0 0 0 0 0 0 0 0 0 0 0 0 0 0 0 0 0 -16 0 0 21 0 0 11 0 0 0 -8 0 0 0 0 0 0 0 0 0 0 0 0 0 0 0 0 0 0 0 0 8 0 0 0 0 0 0 0 0 0 0 0 0 0 0 0 0 0
0.00 0.00 0.00 179.6530 -2.8924 -150.2960 0.0000 0.0000 0.0000 -15.0221 -18.5387 -26.1178 0.3631 3.8706 10.7130 0.2830 1.9475 -10.9555 5.5852 -14.0140 -43.2933 0.0000 0.0000 0.0000 14.3488 20.1867 -26.7973 -0.4444 -4.2770 11.8573 -1.2008 -0.3932 -20.8656 -3.0519 10.7786 -31.5367 -5.8408 -1.5932 -27.0402 -0.3616 -1.0054 -2.5007 2.5208 -1.0578 12.3332 -4.5075 -7.8355 5.8266 8.6897 -10.5528 -14.7473 3.9820 -5.7648 -4.6435 -0.0000 0.0000 0.0000 -75.7166 3.4827 48.5624 16.3769 -26.0291 -3.8099 -0.0000 -0.0000 1.8808 22.2308 -13.4555 -5.4328 -7.1250 0.0000 -0.0000 -3.5242 15.5063 2.4585 -0.0000 0.0000 0.0000 89.8189 -5.5457 13.2703 -15.5502 24.9069 -3.4543 0.0000 0.0000 0.6569 -13.2027 -46.7213 9.6922 7.1250 -0.0000 -0.0000 45.4481 -73.1963 -32.0448
0.00 0.00 0.00 178.9440 -3.9010 -144.9240 0.0000 0.0000 0.0000 -9.8550 -24.9589 -41.7734 2.1946 9.2601 26.6124 0.7211 1.6339 -16.7133 5.8132 -14.2448 -44.2273 0.0000 0.0000 0.0000 10.2544 22.6462 -41.4689 -1.8827 -8.6173 24.6055 -1.7597 -0.9332 -25.4391 -3.6427 11.6691 -34.5712 -6.0031 -1.8465 -23.4835 -0.4417 -1.4844 -2.8528 2.4317 -1.2012 10.0776 -4.8622 -8.1192 5.2290 9.2899 -11.1634 -17.9304 4.3727 -6.2510 -5.4258 0.0000 -0.0000 0.0000 -68.7524 7.8960 54.1831 21.9594 -32.9311 -6.5637 -0.0000 0.0000 -1.4672 23.3639 -13.5966 -5.7987 -7.1250 0.0000 -0.0000 -2.7545 15.2315 1.9363 0.0000 -0.0000 0.0000 87.2979 -12.0177 18.8447 -21.9974 32.9741 -6.5844 0.0000 -0.0000 -3.4497 -13.9772 -48.1193 10.4989 7.1250 -0.0000 -0.0000 48.6955 -74.3275 -35.6559
0.00 0.00 0.00 179.0830 -5.3346 -142.3890 0.0000 0.0000 0.0000 -5.9486 -25.1072 -56.6467 5.6549 14.0854 43.5804 1.1490 -3.8786 -19.3436 4.2007 -12.4228 -37.2445 0.0000 0.0000 0.0000 8.9012 22.1616 -54.3674 -4.7458 -13.0917 39.7128 -2.7796 1.7796 -31.1164 -3.3979 11.3129 -33.3424 -5.2043 -1.5128 -18.9746 -0.3423 -1.3512 -2.6451 2.2222 -0.9911 7.8588 -10.2913 -7.8652 6.4188 14.6889 -10.5493 -16.6087 6.8496 -5.9846 -4.5851 -0.0000 -0.0000 0.0000 -65.7301 9.2837 54.8775 25.5115 -36.7222 -8.5939 -0.0000 0.0000 -2.9412 23.9936 -14.2125 -6.2365 -7.1250 0.0000 -0.0000 -2.3622 14.4943 1.6973 -0.0000 -0.0000 0.0000 85.5231 -16.4556 21.2878 -28.6243 39.6847 -10.5200 0.0000 -0.0000 -6.2347 -16.6137 -48.7223 12.6386 7.1250 -0.0000 -0.0000 48.3246 -75.6816 -36.5916
0.00 0.00 0.00 178.7680 -6.7039 -140.7990 0.0000 0.0000 0.0000 -4.1862 -23.4651 -70.8148 10.4600 17.6605 61.0150 1.2081 -9.1600 -19.7366 2.2303 -9.3301 -26.8335 0.0000 0.0000 0.0000 7.6929 21.3041 -66.7649 -9.0875 -16.8637 56.3924 -4.0502 3.5245 -37.4004 -3.2147 11.0347 -32.3969 -5.3149 -1.1382 -15.0889 -0.7197 -0.7931 -1.3660 2.0641 -0.6313 7.0691 -16.1206 -7.4064 7.3687 20.7327 -9.9820 -15.5550 9.7547 -5.8227 -3.7532 -0.0000 -0.0000 0.0000 -64.5119 6.9418 53.2986 27.3046 -38.4682 -9.6880 -0.0000 0.0000 -3.4259 24.9634 -14.8080 -6.7852 -7.1250 0.0000 -0.0000 -1.7463 13.7284 1.2826 -0.0000 -0.0000 0.0000 83.9315 -18.9909 24.3944 -37.6649 46.6240 -16.7216 0.0000 -0.0000 -7.1586 -21.0871 -46.4567 15.6162 7.1250 -0.0000 -0.0000 36.6788 -76.0017 -27.4586
0.00 0.00 0.00 177.9330 -11.0141 -140.5210 0.0000 0.0000 0.0000 -0.4870 -25.1002 -82.4361 15.8506 19.5821 77.7863 1.5046 -12.9164 -22.4331 1.9176 -8.6923 -24.8374 0.0000 0.0000 0.0000 7.1132 20.4749 -76.9701 -14.7991 -19.3387 74.6308 -5.7826 1.2908 -45.5724 -3.1507 10.9351 -32.0614 -5.5447 -0.9050 -10.1925 -1.2434 -0.6537 -0.9574 1.7242 -0.4809 4.7632 -19.1358 -8.0662 7.8743 24.7079 -11.0924 -13.5758 11.4961 -6.4628 -2.5403 -0.0000 -0.0000 0.0000 -67.3142 3.4287 45.4035 25.8357 -37.0460 -8.7885 -0.0000 0.0000 -0.1917 26.3471 -15.8871 -7.7207 -7.1250 0.0000 -0.0000 -0.9067 12.3612 0.6917 -0.0000 -0.0000 0.0000 83.1648 -18.4193 27.4804 -46.0660 51.2802 -23.0675 0.0000 -0.0000 -5.0144 -29.2300 -45.7767 21.8509 7.1250 -0.0000 -0.0000 23.9796 -78.7737 -19.0188
0.00 0.00 0.00 176.7040 -29.3334 -144.7260 0.0000 0.0000 0.0000 6.5581 -33.0036 -79.7078 16.5769 19.7167 79.9459 -1.6096 -27.0588 -7.2607 4.4661 12.7561 38.4621 0.0000 0.0000 0.0000 17.6596 14.7288 -72.0510 -16.9689 -19.7783 81.1061 -6.5750 -8.0840 -51.4617 -2.6708 10.1420 -29.4378 -6.3923 4.0967 -6.3036 -3.8494 5.8691 -0.8629 0.0523 2.8212 2.3933 -27.6872 -8.5624 2.8511 26.0960 -13.0697 0.8019 12.5698 -6.7738 3.5065 0.0000 0.0000 0.0000 -77.3755 5.6569 36.1966 35.9971 -45.5112 -15.5205 -0.0000 0.0000 -3.4145 30.0482 -16.3757 -9.2629 -7.1250 0.0000 -0.0000 1.4951 11.2334 -1.1756 0.0000 0.0000 0.0000 74.0420 3.3584 57.3848 -59.5990 56.2021 -34.0076 0.0000 -0.0000 -0.8455 -26.5174 -44.7955 19.3695 7.1250 -0.0000 -0.0000 25.0615 -76.8793 -18.9412
0.00 0.00 0.00 176.7970 -41.8406 -145.2230 0.0000 0.0000 0.0000 5.7072 -32.5730 -69.6451 11.0000 17.9351 62.7815 -1.0328 -17.7893 9.1619 5.9177 14.3481 44.6506 0.0000 0.0000 0.0000 25.7186 5.5586 -62.9745 -11.2787 -18.0688 63.6834 -3.1532 -11.0823 -38.7371 -2.9057 10.5408 -30.7465 -7.2592 7.6128 -11.2085 -4.3903 10.9093 -2.7753 0.8187 5.2985 2.8061 -23.7593 -2.7625 2.0373 17.5914 -4.2664 0.2636 9.4088 -2.2288 0.6475 -0.0000 0.0000 0.0000 -71.9400 12.7501 48.4439 44.6528 -50.5973 -21.9702 -0.0000 0.0000 -3.1833 29.4700 -16.3716 -9.0499 -7.1250 0.0000 -0.0000 1.1147 11.3361 -0.8740 -0.0000 0.0000 0.0000 62.2081 5.5532 65.8902 -61.4063 56.6732 -35.5137 0.0000 -0.0000 -4.7724 -17.1807 -42.1049 11.7118 7.1250 -0.0000 -0.0000 30.7348 -71.2674 -19.8053
